<?xml version="1.0" encoding="iso-8859-1"?>
<!-- Generator: Adobe Illustrator 19.0.0, SVG Export Plug-In . SVG Version: 6.00 Build 0)  -->
<svg version="1.1" id="Capa_1" xmlns="http://www.w3.org/2000/svg" xmlns:xlink="http://www.w3.org/1999/xlink" x="0px" y="0px"
	 viewBox="0 0 511.999 511.999" style="enable-background:new 0 0 511.999 511.999;" xml:space="preserve">
<path style="fill:#4B5055;" d="M426.051,315.762v152.806c0,19.701-16.118,35.819-35.819,35.819H121.768
	c-19.701,0-35.819-16.118-35.819-35.819V315.762c0-55.865,27.303-105.67,69.222-136.709c28.257-20.929,63.163-33.342,100.829-33.342
	c46.771,0,89.278,19.133,120.103,49.947C406.919,226.483,426.051,268.991,426.051,315.762z"/>
<path style="fill:#5A5F64;" d="M426.051,315.762v147.356H161.475c-19.701,0-35.819-16.118-35.819-35.819V274.492
	c0-35.311,10.901-68.187,29.516-95.439c28.257-20.929,63.163-33.342,100.829-33.342c46.771,0,89.278,19.133,120.103,49.947
	C406.919,226.483,426.051,268.991,426.051,315.762z"/>
<g>
	<path style="fill:#7D8287;" d="M209.534,306.667c0,9.044-5.176,16.869-12.738,20.675c-3.126,1.583-6.668,2.477-10.414,2.477
		c-12.779,0-23.152-10.363-23.152-23.152c0-12.789,10.373-23.152,23.152-23.152C199.127,283.515,209.534,293.842,209.534,306.667z"
		/>
	<path style="fill:#7D8287;" d="M325.618,329.819c-12.789,0-23.152-10.363-23.152-23.152c0-17.398,18.382-28.34,33.566-20.675
		C357.857,296.992,349.77,329.819,325.618,329.819z"/>
</g>
<g>
	<path style="fill:#A0A0A5;" d="M196.796,327.343c-16.963-8.516-16.99-32.822,0-41.351
		C213.742,294.522,213.781,318.792,196.796,327.343z"/>
	<path style="fill:#A0A0A5;" d="M336.032,327.343c-16.961-8.514-16.992-32.821,0-41.351
		C352.982,294.536,353.009,318.785,336.032,327.343z"/>
	<path style="fill:#A0A0A5;" d="M314.606,411.718v40.762c0,6.699-5.481,12.18-12.18,12.18h-94.617c-6.699,0-12.18-5.481-12.18-12.18
		v-40.762c0-6.699,5.481-12.18,12.18-12.18h94.617C309.125,399.539,314.606,405.02,314.606,411.718z"/>
</g>
<g>
	<circle style="fill:#4B5055;" cx="262.09" cy="32.519" r="26.093"/>
	<circle style="fill:#4B5055;" cx="123.707" cy="77.605" r="26.093"/>
	<circle style="fill:#4B5055;" cx="388.294" cy="77.605" r="26.093"/>
</g>
<g>
	<path style="fill:#D63030;" d="M129.613,340.327v47.722c0,4.085-0.678,8.016-1.937,11.686
		c-4.894,14.341-18.533,24.727-34.475,24.727c-10.01,0-19.113-4.093-25.716-10.696c-6.602-6.603-10.697-15.706-10.697-25.716
		v-47.722c0-16.98,11.783-31.346,27.578-35.316c2.828-0.719,5.794-1.095,8.833-1.095
		C113.23,303.916,129.613,320.299,129.613,340.327z"/>
	<path style="fill:#D63030;" d="M455.147,340.327v47.722c0,4.085-0.678,8.016-1.937,11.686
		c-4.894,14.341-18.533,24.727-34.475,24.727c-20.028,0-36.412-16.384-36.412-36.412v-47.722c0-20.031,16.391-36.412,36.412-36.412
		C438.763,303.916,455.147,320.299,455.147,340.327z"/>
</g>
<path style="fill:#F44545;" d="M407.369,261.824l-4.968,4.96c-7.975,8-21.461,5.432-26.091-4.902
	c-20.665-46.169-67.047-78.429-120.815-78.429c-53.776,0-100.157,32.26-120.822,78.429c-2.933,6.546-9.422,9.985-15.811,9.577
	c-8.407-0.521-11.749-6.786-15.248-9.634c-4.781-4.781-6.072-12.045-3.22-18.165c27.235-58.401,86.52-98.964,155.102-98.964
	c68.575,0,127.858,40.563,155.094,98.964C413.44,249.779,412.149,257.044,407.369,261.824z"/>
<path style="fill:#D63030;" d="M393.183,271.352c-6.725,0.882-13.776-2.558-16.874-9.471
	c-20.665-46.169-67.047-78.429-120.815-78.429c-53.776,0-100.157,32.26-120.822,78.429c-2.933,6.546-9.422,9.985-15.811,9.577
	l-0.024-0.024c-4.315-4.315-5.483-10.877-2.909-16.4c24.596-52.731,78.118-89.354,140.042-89.354s115.446,36.625,140.042,89.354
	C398.568,260.525,397.432,267.037,393.183,271.352z"/>
<g>
	<path style="fill:#F44545;" d="M129.613,340.327v47.722c0,4.085-0.678,8.016-1.937,11.686c-2.828,0.719-5.794,1.095-8.833,1.095
		c-10.01,0-19.113-4.093-25.716-10.696c-6.602-6.603-10.696-15.706-10.696-25.716v-47.723c0-4.085,0.678-8.016,1.937-11.686
		c2.828-0.719,5.794-1.095,8.833-1.095C113.23,303.916,129.613,320.299,129.613,340.327z"/>
	<path style="fill:#F44545;" d="M455.147,340.327v47.722c0,4.085-0.678,8.016-1.937,11.686c-2.828,0.719-5.794,1.095-8.833,1.095
		c-20.028,0-36.42-16.384-36.42-36.412c0.558-45.845-1.351-49.82,1.937-59.406c2.836-0.719,5.794-1.095,8.842-1.095
		C438.763,303.916,455.147,320.299,455.147,340.327z"/>
</g>
<path style="fill:#D63030;" d="M264.943,460.103v5.968c0,0.325-0.01,0.65-0.03,0.964c-0.497,11.449-10.028,20.655-21.589,20.655
	h-39.3c-11.885,0-21.619-9.724-21.619-21.619v-5.968c0-11.185,8.607-20.462,19.518-21.528c0.69-0.071,1.391-0.102,2.101-0.102h39.3
	C255.209,438.473,264.943,448.207,264.943,460.103z"/>
<path style="fill:#F44545;" d="M264.943,460.103v5.968c0,0.325-0.01,0.65-0.03,0.964c-0.69,0.071-1.391,0.102-2.101,0.102h-39.29
	c-11.896,0-21.629-9.724-21.629-21.619v-5.968c0-0.325,0.01-0.65,0.03-0.974c0.69-0.071,1.391-0.102,2.101-0.102h39.3
	C255.209,438.473,264.943,448.207,264.943,460.103z"/>
<path d="M432.872,298.974c-6.14-65.359-47.836-119.252-102.784-144.651c2.516-13.545,2.12-13.432,2.686-13.565l23.812-4.212
	c6.445-1.137,11.54-6.232,12.687-12.687c1.815-10.278,1.119-6.333,2.933-16.616c21.501,11.707,47.838-2.826,49.69-27.05
	c0.32-4.192-2.819-7.85-7.011-8.171c-4.191-0.319-7.849,2.82-8.171,7.011c-0.335,4.39-2.237,8.525-5.357,11.645
	c-11.574,11.577-31.549,3.364-31.549-13.067c0-14.027,14.915-22.719,27.03-16.393c3.726,1.946,8.326,0.505,10.272-3.223
	c1.947-3.727,0.503-8.325-3.223-10.272c-12.697-6.633-28.772-4.606-39.432,6.053c-11.084,11.084-12.761,27.805-5.426,40.576
	c-5.085,28.076-4.524,27.107-5.104,27.204l-23.812,4.212c-6.445,1.147-11.54,6.242-12.677,12.687l-1.766,9.956
	c-17.565-6.293-36.163-9.789-55.247-10.257c6.792-10.715,11.567-13.778,11.567-21.472c0-8.045-4.949-10.807-16.681-28.785
	c-0.33-0.47-0.66,0.656,15.638-22.855c32.33-8.818,33.337-54.646,1.213-64.691c-4.012-1.256-8.282,0.98-9.537,4.994
	c-1.255,4.012,0.98,8.282,4.994,9.537c7.748,2.424,12.954,9.513,12.954,17.644c0,10.19-8.29,18.482-18.481,18.482
	c-15.845,0-24.193-18.64-14.044-30.495c2.733-3.193,2.362-7.999-0.831-10.733c-3.193-2.735-8-2.361-10.733,0.831
	c-5.221,6.098-8.097,13.881-8.097,21.916c0,15.259,10.196,28.175,24.129,32.312c-7.581,11.876-12.506,15.009-12.506,22.814
	c0,3.226,0.976,6.326,2.825,8.97c14.377,20.775,14.188,19.835,13.856,20.308l-15.194,21.729c-3.35,0.486-21.466,1.189-45.196,9.612
	l-1.736-9.815c-1.137-6.445-6.232-11.54-12.677-12.687c-24.943-4.533-24.033-3.99-24.167-4.557l-4.749-26.859
	c12.656-22.034-3.034-50.448-29.257-50.448c-0.003,0-0.005,0-0.008,0c-5.418,0-10.81,1.32-15.592,3.819
	c-3.726,1.947-5.169,6.545-3.223,10.272c1.946,3.727,6.544,5.168,10.272,3.223c4.404-2.3,8.651-2.101,8.549-2.089
	c10.211,0,18.481,8.267,18.481,18.482c0,10.214-8.265,18.48-18.482,18.48c-9.798,0-17.701-7.58-18.424-17.058
	c-0.32-4.192-3.975-7.328-8.171-7.011c-4.192,0.32-7.331,3.979-7.011,8.171c1.865,24.393,28.376,38.655,49.69,27.05
	c1.816,10.287,1.117,6.329,2.933,16.616c1.147,6.455,6.242,11.551,12.687,12.687c24.838,4.515,24.061,3.996,24.157,4.567
	l2.304,13.002c-55.866,25.531-96.465,78.886-102.737,144.849c-16.686,6.191-28.602,22.269-28.602,41.077v47.41
	c0,18.503,11.54,34.357,27.8,40.752v40.366c0,23.944,19.488,43.431,43.431,43.431h268.464c23.944,0,43.431-19.488,43.431-43.431
	v-40.366c16.26-6.394,27.8-22.249,27.8-40.752v-47.41C461.464,321.242,449.548,305.165,432.872,298.974z M411.263,267.956
	c2.811,9.115,4.841,18.574,6.009,28.298c-1.776,0.02-3.532,0.142-5.247,0.365c-1.249-8.757-2.945-16.451-5.166-24.258
	L411.263,267.956z M107.589,250.254c19.319-43.369,57.377-77.758,104.696-91.004c1.897,0,54.516-18.983,114.998,10.931
	c32.53,16.128,59.529,42.995,75.414,77.048c1.477,3.171,0.799,6.952-1.685,9.439c-3.724,3.003-6.294,8.831-13.022,7.074
	c-2.456-0.66-4.435-2.355-5.501-4.74c-22.411-50.059-72.247-82.407-126.965-82.407s-104.554,32.348-126.965,82.407
	c-2.408,5.424-9.409,6.78-13.591,2.598C112.136,258.072,107.269,256.002,107.589,250.254z M100.636,268.798l3.075,3.075
	c-2.355,8.008-4.08,16.219-5.146,24.583c-1.248-0.122-2.517-0.183-3.796-0.203C95.917,286.895,97.896,277.71,100.636,268.798z
	 M65.762,387.45v-47.41c0-24.235,28.294-37.247,46.72-22.025c6.344,5.247,10.393,13.175,10.393,22.025v47.41
	c0,15.774-12.833,28.552-28.562,28.552C78.401,416.002,65.762,403.03,65.762,387.45z M418.439,468.568
	c0,15.55-12.657,28.206-28.207,28.206H121.768c-15.55,0-28.206-12.657-28.206-28.206v-37.352c0.778,0.031,2.609,0.008,4.395-0.142
	c16.798,25.04,45.309,41.584,77.626,41.716c3.035,12.89,14.636,22.512,28.44,22.512h39.3c13.987,0,25.72-9.876,28.562-23.03h30.541
	c10.911,0,19.792-8.871,19.792-19.792v-40.762c0-10.911-8.881-19.792-19.792-19.792h-94.617c-10.911,0-19.792,8.881-19.792,19.792
	v23.933c-7.288,4.791-12.322,12.748-13.103,21.903c-24.959-0.325-47.146-12.332-61.326-30.805
	c14.504-7.135,24.512-22.076,24.512-39.3v-47.41c0-17.306-10.099-32.307-24.705-39.412c0.822-7.338,2.203-14.545,4.121-21.599
	c10.225,1.514,20.561-4.011,24.948-13.804c19.955-44.588,64.33-73.404,113.059-73.404s93.115,28.815,113.07,73.404
	c4.295,9.585,14.244,15.076,24.339,13.875c1.436,5.738,3.063,11.971,4.364,22.198c-13.905,7.349-23.395,21.964-23.395,38.742v47.41
	c0,24.136,19.64,43.776,43.787,43.776c0.254,0,0.497,0,0.751-0.01V468.568z M243.323,446.086c6.679,0,12.271,4.699,13.662,10.962
	c0.548,2.313,0.273,3.803,0.345,9.023c0,7.704-6.274,14.007-14.007,14.007h-39.3c-7.724,0-14.007-6.283-14.007-14.007
	c0-0.153,0-6.316,0-5.968c0-7.46,5.867-13.591,13.225-13.997C203.887,446.08,242.484,446.086,243.323,446.086z M203.242,430.881
	v-19.163c0-2.477,2.091-4.567,4.567-4.567h17.996v23.71C202.543,430.861,203.631,430.85,203.242,430.881z M241.029,430.861v-23.71
	h28.174v39.377C260.009,429.043,241.468,430.981,241.029,430.861z M284.428,457.048v-49.897h17.998c2.466,0,4.567,2.091,4.567,4.567
	v40.762c0,2.477-2.101,4.567-4.567,4.567H284.428z M446.24,387.45c0,15.601-12.659,28.552-28.552,28.552
	c-15.753,0-28.562-12.809-28.562-28.552v-47.41c0-8.445,3.684-16.047,9.531-21.274c18.344-16.432,47.583-3.259,47.583,21.274
	L446.24,387.45L446.24,387.45z"/>
<path d="M186.383,275.903c-16.96,0-30.764,13.804-30.764,30.764s13.804,30.764,30.764,30.764c16.971,0,30.764-13.804,30.764-30.764
	S203.353,275.903,186.383,275.903z M186.383,322.207c-8.566,0-15.539-6.973-15.539-15.539c0-8.566,6.973-15.539,15.539-15.539
	c8.577,0,15.539,6.973,15.539,15.539C201.922,315.234,194.959,322.207,186.383,322.207z"/>
<path d="M325.618,275.903c-16.971,0-30.764,13.804-30.764,30.764s13.794,30.764,30.764,30.764c16.96,0,30.764-13.804,30.764-30.764
	S342.579,275.903,325.618,275.903z M325.618,322.207c-8.577,0-15.539-6.973-15.539-15.539c0-8.566,6.963-15.539,15.539-15.539
	c8.566,0,15.539,6.973,15.539,15.539C341.158,315.234,334.185,322.207,325.618,322.207z"/>
<g>
</g>
<g>
</g>
<g>
</g>
<g>
</g>
<g>
</g>
<g>
</g>
<g>
</g>
<g>
</g>
<g>
</g>
<g>
</g>
<g>
</g>
<g>
</g>
<g>
</g>
<g>
</g>
<g>
</g>
</svg>
