<svg id="Capa_1" enable-background="new 0 0 512 512" height="512" viewBox="0 0 512 512" width="512" xmlns="http://www.w3.org/2000/svg"><g><path d="m353.546 512h-191.395c0-52.848 42.845-95.693 95.703-95.693 26.424 0 50.344 10.714 67.662 28.031 17.316 17.318 28.03 41.238 28.03 67.662z" fill="#7a6d79"/><path d="m278.498 418.553c-42.948 9.426-75.079 47.687-75.079 93.447h-41.269c0-52.848 42.845-95.693 95.703-95.693 7.088 0 13.99.773 20.645 2.246z" fill="#685e68"/><path d="m257.848 85.234c-80.84 0-146.609 65.769-146.609 146.609v51.917c0 56.025 31.593 104.802 77.894 129.474h-3.226c-12.203 0-22.096 9.893-22.096 22.096 0 12.203 9.893 22.096 22.096 22.096h143.881c12.203 0 22.096-9.893 22.096-22.096 0-12.203-9.893-22.096-22.096-22.096h-3.225c46.301-24.672 77.894-73.45 77.894-129.474v-51.917c0-80.84-65.768-146.609-146.609-146.609z" fill="#918291"/><path d="m226.044 413.234h-3.224c-12.197 0-22.097 9.89-22.097 22.097 0 6.099 2.472 11.62 6.48 15.617 3.997 4.007 9.519 6.48 15.617 6.48h-36.921c-6.099 0-11.62-2.472-15.617-6.48-3.997-3.997-6.469-9.519-6.469-15.617 0-12.207 9.89-22.097 22.087-22.097h3.235c-46.306-24.673-77.902-73.451-77.902-129.482v-51.91c0-80.838 65.776-146.614 146.614-146.614 6.253 0 12.414.391 18.461 1.164-72.163 9.096-128.153 70.865-128.153 145.45v51.91c-.002 56.03 31.593 104.809 77.889 129.482z" fill="#7a6d79"/><path d="m373.557 231.845v51.91c0 49.603-31.224 91.922-75.089 108.364-12.64 4.749-26.331 7.345-40.62 7.345-63.902 0-115.709-51.807-115.709-115.709v-51.91c0-23.643 7.098-45.637 19.285-63.963 4.265-6.428 9.168-12.414 14.608-17.853 20.943-20.943 49.871-33.893 81.816-33.893 63.902 0 115.709 51.807 115.709 115.709z" fill="#ffeee6"/><g><path d="m229.77 275.244c-4.267 0-7.726-3.459-7.726-7.726v-20.331c0-4.267 3.459-7.726 7.726-7.726s7.726 3.459 7.726 7.726v20.331c0 4.267-3.459 7.726-7.726 7.726z" fill="#685e68"/><path d="m285.927 275.244c-4.267 0-7.726-3.459-7.726-7.726v-20.331c0-4.267 3.459-7.726 7.726-7.726s7.726 3.459 7.726 7.726v20.331c0 4.267-3.459 7.726-7.726 7.726z" fill="#685e68"/><path d="m258.493 331.672c-8.548 0-17.096-2.142-24.888-6.426-3.739-2.055-5.105-6.754-3.049-10.492 2.055-3.739 6.752-5.107 10.492-3.049 10.925 6.006 23.967 6.005 34.89 0 3.739-2.056 8.437-.691 10.492 3.049 2.056 3.739.691 8.437-3.049 10.492-7.791 4.284-16.34 6.426-24.888 6.426z" fill="#fe646f"/></g><path d="m298.468 392.119c-12.64 4.749-26.331 7.345-40.62 7.345-63.902 0-115.709-51.807-115.709-115.709v-51.91c0-23.643 7.098-45.637 19.285-63.963-.319 34.943-.484 71.473-.484 75.697 0 79.086 57.514 143.204 128.462 143.204 3.4 0 6.429 1.916 9.066 5.336z" fill="#ffdfcf"/><path d="m264.815 39.144h-16.436c-76.625 0-138.742 62.117-138.742 138.742h293.921c-.001-76.625-62.118-138.742-138.743-138.742z" fill="#918291"/><path d="m285.271 40.647c-66.93 9.879-118.295 67.559-118.295 137.239h-57.339c0-76.624 62.119-138.743 138.743-138.743h16.431c6.954 0 13.784.515 20.46 1.504z" fill="#7a6d79"/><path d="m279.638 210.641v-186.999c0-13.055-10.583-23.638-23.638-23.638-13.055 0-23.638 10.583-23.638 23.638v186.998c0 13.055 10.583 23.638 23.638 23.638 13.055 0 23.638-10.583 23.638-23.637z" fill="#ffe177"/><path d="m266.358 231.881c-3.132 1.535-6.645 2.39-10.353 2.39-13.052 0-23.642-10.58-23.642-23.632v-186.997c0-6.531 2.648-12.444 6.923-16.72 4.285-4.274 10.198-6.922 16.719-6.922 3.709 0 7.221.855 10.353 2.39-2.369 1.154-4.512 2.689-6.356 4.533-4.275 4.275-6.923 10.188-6.923 16.72v186.997c0 9.333 5.419 17.409 13.279 21.241z" fill="#ffd15b"/><path d="m403.557 163.738h-295.114c-13.055 0-23.638 10.583-23.638 23.638 0 13.055 10.583 23.638 23.638 23.638h295.114c13.055 0 23.638-10.583 23.638-23.638 0-13.055-10.583-23.638-23.638-23.638z" fill="#ffe177"/><path d="m157.082 204.095c4.275 4.275 10.188 6.923 16.72 6.923h-65.364c-6.521 0-12.434-2.647-16.709-6.923-4.275-4.275-6.923-10.188-6.923-16.72 0-13.052 10.58-23.632 23.632-23.632h65.364c-13.063 0-23.643 10.58-23.643 23.632 0 6.532 2.648 12.445 6.923 16.72z" fill="#ffd15b"/></g></svg>