<svg id="Capa_1" enable-background="new 0 0 512 512" height="512" viewBox="0 0 512 512" width="512" xmlns="http://www.w3.org/2000/svg"><g><path d="m317.257 0h-122.514c-52.066 0-94.273 42.208-94.273 94.273v160.282c0 52.066 42.208 94.273 94.273 94.273h122.513c52.066 0 94.273-42.208 94.273-94.273v-160.282c.001-52.065-42.206-94.273-94.272-94.273z" fill="#7a6d79"/><path d="m279.763 348.831h-85.021c-52.065 0-94.272-42.206-94.272-94.272v-160.286c0-52.065 42.206-94.272 94.272-94.272h85.021c-52.065 0-94.272 42.206-94.272 94.272v160.286c0 52.066 42.206 94.272 94.272 94.272z" fill="#685e68"/><path d="m371.71 257.751v26.002c0 49.614-31.215 81.044-75.08 97.507-2.998 1.123-6.057 2.132-9.169 3.008v29.679c0 8.695-3.523 16.555-9.21 22.252-5.697 5.687-13.568 9.21-22.252 9.21-17.379 0-31.462-14.083-31.462-31.462v-29.49c-48.614-13.712-84.248-47.701-84.248-100.704v-26.002c6.233-1.978 12.507-3.791 18.811-5.439 69.827-18.296 143.557-16.483 212.61 5.439z" fill="#ffeee6"/><path d="m351.699 512h-191.398c0-52.848 42.845-95.694 95.704-95.694 26.424 0 50.345 10.714 67.662 28.031 17.318 17.318 28.032 41.239 28.032 67.663z" fill="#fe646f"/><path d="m246.408 434.474h19.184v77.526h-19.184z" fill="#ffe177"/><path d="m278.628 419.006c-41.949 10.137-73.102 47.934-73.102 92.994h-45.225c0-52.848 42.845-95.694 95.704-95.694 7.788 0 15.371.928 22.623 2.7z" fill="#fd4755"/><path d="m296.63 392.128c-2.998 1.123-6.057 2.132-9.169 3.008v18.811c0 8.695-3.523 16.555-9.21 22.252-5.697 5.687-13.568 9.21-22.252 9.21-17.379 0-31.462-14.083-31.462-31.462v-18.811c-48.614-13.712-84.248-58.38-84.248-111.383v-26.002c6.303-2.005 12.652-3.823 19.028-5.501 4.028 75.049 59.905 134.531 128.237 134.531 3.4 0 6.439 1.917 9.076 5.347z" fill="#ffdfcf"/><path d="m371.71 257.751v26.002c0 63.902-51.808 115.71-115.71 115.71-14.402 0-28.186-2.627-40.898-7.448-43.721-16.514-74.802-58.762-74.802-108.262v-26.002c.052-.021.093-.031.144-.052 2.215 46.461 31.822 85.742 73.05 102.029 13.155 5.213 27.495 8.066 42.505 8.066 62.017 0 112.65-48.789 115.566-110.085.052.011.093.032.145.042z" fill="#ffe177"/><g fill="#685e68"><path d="m227.922 275.241c-4.268 0-7.726-3.459-7.726-7.726v-20.331c0-4.267 3.459-7.726 7.726-7.726 4.268 0 7.726 3.459 7.726 7.726v20.331c0 4.267-3.459 7.726-7.726 7.726z"/><path d="m284.078 275.241c-4.268 0-7.726-3.459-7.726-7.726v-20.331c0-4.267 3.459-7.726 7.726-7.726s7.726 3.459 7.726 7.726v20.331c.001 4.267-3.458 7.726-7.726 7.726z"/></g><path d="m287.462 395.136v25.332c0 8.695-3.523 16.555-9.21 22.252-5.697 5.687-13.568 9.21-22.252 9.21-4.564 0-8.89-.968-12.795-2.709-11.002-4.904-18.667-15.927-18.667-28.753v-25.332c0 12.826 7.665 23.849 18.667 28.752 3.904 1.741 8.231 2.709 12.795 2.709 8.684 0 16.555-3.523 22.252-9.21 5.687-5.696 9.21-13.556 9.21-22.251z" fill="#7a6d79"/><path d="m175.083 481.593 24.708-24.708c8.228-8.228 8.228-21.568 0-29.795-8.228-8.228-21.568-8.228-29.795 0l-24.708 24.708c-8.228 8.228-8.228 21.568 0 29.795 8.227 8.228 21.567 8.228 29.795 0z" fill="#7a6d79"/><path d="m203.049 431.307c-1.875-.525-3.801-.793-5.728-.793-5.398 0-10.796 2.06-14.907 6.171l-24.704 24.704c-6.933 6.933-8.025 17.503-3.276 25.579-3.348-.948-6.511-2.73-9.148-5.378-8.231-8.221-8.231-21.562 0-29.793l24.704-24.704c4.11-4.121 9.509-6.171 14.896-6.171 5.398 0 10.786 2.05 14.896 6.171 1.289 1.289 2.381 2.71 3.267 4.214z" fill="#685e68"/><path d="m336.918 481.593-24.708-24.708c-8.228-8.228-8.228-21.568 0-29.795 8.228-8.228 21.568-8.228 29.795 0l24.708 24.708c8.228 8.228 8.228 21.568 0 29.795-8.228 8.228-21.568 8.228-29.795 0z" fill="#7a6d79"/><path d="m370.708 476.01c-.989 2.019-2.318 3.904-3.997 5.584-4.11 4.121-9.498 6.171-14.896 6.171-5.388 0-10.786-2.05-14.896-6.171l-24.704-24.704c-8.231-8.231-8.231-21.572 0-29.793 1.679-1.679 3.564-3.018 5.584-4.007-3.884 7.871-2.545 17.657 4.007 24.209l24.704 24.704c4.121 4.11 9.509 6.171 14.896 6.171 3.193-.001 6.376-.722 9.302-2.164z" fill="#685e68"/><path d="m269.932 315.446h-27.863c-4.268 0-7.726-3.459-7.726-7.726s3.459-7.726 7.726-7.726h27.863c4.268 0 7.726 3.459 7.726 7.726s-3.459 7.726-7.726 7.726z" fill="#fe646f"/><path d="m243.205 423.889v25.332c-11.002-4.904-18.667-15.927-18.667-28.753v-25.332c0 12.826 7.665 23.849 18.667 28.753z" fill="#685e68"/><path d="m215.102 392.015c-43.721-16.514-74.802-58.762-74.802-108.262v-26.002c.052-.021.093-.031.144-.052 2.215 46.461 31.822 85.742 73.05 102.029-3.759 6.079-8.529 18.348 1.608 32.287z" fill="#ffd15b"/><path d="m385.576 270.167c-.871 0-1.757-.148-2.623-.461-4.492-1.621-9.022-3.153-13.466-4.554-.087-.024-.172-.05-.258-.077-67.498-21.404-139.38-23.261-207.873-5.372-11.053 2.908-21.586 6.135-32.311 10.003-4.012 1.446-8.442-.63-9.89-4.644-1.449-4.014.631-8.442 4.645-9.891 11.138-4.017 22.084-7.373 33.563-10.396 71.312-18.642 146.149-16.728 216.43 5.537.079.022.158.046.236.07 4.678 1.473 9.446 3.085 14.169 4.789 4.014 1.449 6.094 5.877 4.645 9.891-1.135 3.147-4.104 5.105-7.267 5.105zm-11.514-19.772h.001z" fill="#685e68"/></g></svg>