<svg id="Capa_1" enable-background="new 0 0 512 512" height="512" viewBox="0 0 512 512" width="512" xmlns="http://www.w3.org/2000/svg"><g><path d="m156.237 111.84c-28.707-28.707-23.621-111.84 69.902-111.84 62.692 0 100.623 43.721 131.551 57.638 61.664 27.749 79.503-28.263 79.503-28.263s28.263 113.564-93.01 121.786" fill="#fe646f"/><path d="m203.506 111.837 168.095 35.17c-8.159 2.04-17.266 3.462-27.423 4.152l-187.946-39.322c-28.702-28.701-23.623-111.837 69.907-111.837 8.169 0 15.916.742 23.282 2.071-70.196 13.021-71.927 83.753-45.915 109.766z" fill="#fd4755"/><path d="m259.698 50.102h-58.923c-12.109 0-21.925 9.816-21.925 21.925 0 12.109 9.816 21.925 21.925 21.925h58.923c12.109 0 21.925-9.816 21.925-21.925 0-12.109-9.816-21.925-21.925-21.925z" fill="#e8edf2"/><path d="m219.171 87.531c3.977 3.966 9.457 6.418 15.504 6.418h-33.893c-6.058 0-11.538-2.452-15.504-6.418-3.977-3.966-6.428-9.447-6.428-15.504 0-12.115 9.818-21.932 21.933-21.932h33.893c-12.105 0-21.922 9.818-21.922 21.932-.001 6.057 2.451 11.538 6.417 15.504z" fill="#dedbee"/><path d="m325.939 512h-191.397c0-52.848 42.845-95.694 95.704-95.694 26.424 0 50.345 10.714 67.662 28.031 17.317 17.318 28.031 41.239 28.031 67.663z" fill="#7a6d79"/><path d="m237.962 432.758v79.242h-15.453v-79.242c0-4.265 3.461-7.726 7.726-7.726s7.727 3.461 7.727 7.726z" fill="#685e68"/><path d="m250.886 418.552c-42.948 9.426-75.08 47.687-75.08 93.448h-41.269c0-52.848 42.845-95.694 95.704-95.694 7.088 0 13.99.773 20.645 2.246z" fill="#685e68"/><path d="m376.852 231.842v51.911c0 39.569-15.762 75.533-41.341 101.926-10.631 10.982-22.963 20.315-36.561 27.557h3.225c6.099 0 11.631 2.472 15.628 6.469s6.47 9.529 6.47 15.628c0 12.197-9.89 22.097-22.097 22.097h-143.877c-6.099 0-11.631-2.472-15.628-6.48-3.997-3.997-6.47-9.519-6.47-15.618 0-12.208 9.89-22.097 22.097-22.097h3.225c-13.598-7.242-25.93-16.576-36.561-27.557-25.579-26.393-41.341-62.357-41.341-101.926v-51.911c0-7.139.515-14.165 1.504-21.036 10.24-70.918 71.412-125.579 145.111-125.579s134.871 54.661 145.111 125.579c.99 6.872 1.505 13.898 1.505 21.037z" fill="#918291"/><path d="m376.852 231.842v51.911c0 39.569-15.762 75.533-41.341 101.926l-98.887 22.036c-4.203.937-8.571.937-12.774 0l-98.887-22.036c-25.579-26.393-41.341-62.357-41.341-101.926v-51.911c0-7.139.515-14.165 1.504-21.036 1.494-.69 3.07-1.226 4.718-1.597l140.393-31.287 140.393 31.287c1.648.371 3.224.907 4.718 1.597.989 6.871 1.504 13.897 1.504 21.036z" fill="#7a6d79"/><path d="m198.432 413.233h-3.224c-12.197 0-22.097 9.89-22.097 22.097 0 6.099 2.472 11.62 6.48 15.618 3.997 4.007 9.519 6.48 15.618 6.48h-36.922c-6.099 0-11.62-2.472-15.618-6.48-3.997-3.997-6.469-9.519-6.469-15.618 0-12.208 9.89-22.097 22.087-22.097h3.235c-46.307-24.673-77.902-73.452-77.902-129.484v-51.911c0-80.838 65.777-146.615 146.615-146.615 6.253 0 12.414.391 18.461 1.164-72.166 9.097-128.156 70.866-128.156 145.451v51.911c0 56.032 31.595 104.811 77.892 129.484z" fill="#7a6d79"/><g><g><path d="m230.236 159.384 140.393 31.283c10.456 2.33 17.893 11.606 17.893 22.319v124.011c0 10.712-7.437 19.989-17.893 22.319l-140.393 31.283-19.854-76.713z" fill="#e8edf2"/><path d="m230.236 159.384-140.393 31.283c-10.456 2.33-17.893 11.606-17.893 22.319v124.011c0 10.712 7.437 19.989 17.893 22.319l140.393 31.283z" fill="#dedbee"/></g><g><g><g><path d="m278.527 342.822c-7.19 0-13.018-5.828-13.018-13.018v-109.625c0-7.19 5.828-13.018 13.018-13.018 7.19 0 13.018 5.828 13.018 13.018v109.625c0 7.19-5.828 13.018-13.018 13.018z" fill="#685e68"/></g><g><path d="m337.806 326.562c-7.19 0-13.018-5.828-13.018-13.018v-77.105c0-7.19 5.828-13.018 13.018-13.018 7.19 0 13.018 5.828 13.018 13.018v77.105c-.001 7.19-5.829 13.018-13.018 13.018z" fill="#685e68"/></g></g><g><g><path d="m181.945 342.822c7.19 0 13.018-5.828 13.018-13.018v-109.625c0-7.19-5.828-13.018-13.018-13.018-7.19 0-13.018 5.828-13.018 13.018v109.625c0 7.19 5.828 13.018 13.018 13.018z" fill="#685e68"/></g><g><path d="m122.667 326.562c7.19 0 13.018-5.828 13.018-13.018v-77.105c0-7.19-5.828-13.018-13.018-13.018-7.19 0-13.018 5.828-13.018 13.018v77.105c0 7.19 5.828 13.018 13.018 13.018z" fill="#685e68"/></g></g></g></g></g></svg>