<svg id="Capa_1" enable-background="new 0 0 512 512" height="512" viewBox="0 0 512 512" width="512" xmlns="http://www.w3.org/2000/svg"><g><path d="m450.709 307.541c10.886-12.325 17.505-28.508 17.505-46.245 0-32.778-22.565-60.275-53.004-67.834 11.319-12.421 18.222-28.937 18.222-47.066 0-38.607-31.297-69.904-69.904-69.904h-215.053c-38.607 0-69.904 31.297-69.904 69.904 0 18.129 6.903 34.645 18.222 47.066-30.44 7.559-53.004 35.056-53.004 67.834 0 17.737 6.619 33.92 17.505 46.245-24.712 13.461-41.483 39.663-41.483 69.785 0 43.859 35.555 79.414 79.414 79.414h313.555c43.859 0 79.414-35.555 79.414-79.414-.002-30.122-16.773-56.324-41.485-69.785z" fill="#918291"/><path d="m139.681 433.482c14.371 14.371 34.223 23.262 56.156 23.262h-96.612c-21.922 0-41.784-8.891-56.156-23.262-14.371-14.371-23.262-34.223-23.262-56.156 0-30.123 16.771-56.32 41.486-69.785-5.439-6.161-9.818-13.289-12.836-21.088-3.008-7.809-4.667-16.287-4.667-25.157 0-32.77 22.561-60.276 53.003-67.828-5.666-6.212-10.22-13.444-13.362-21.397-3.142-7.943-4.863-16.607-4.863-25.672 0-38.612 31.297-69.909 69.909-69.909h96.611c-38.612 0-69.909 31.297-69.909 69.909 0 9.066 1.72 17.73 4.862 25.672 3.142 7.953 7.696 15.185 13.362 21.397-30.442 7.551-53.003 35.057-53.003 67.828 0 8.87 1.659 17.348 4.667 25.157 3.019 7.799 7.397 14.927 12.836 21.088-24.714 13.465-41.486 39.662-41.486 69.785.002 21.933 8.892 41.785 23.264 56.156z" fill="#7a6d79"/><path d="m422.679 268.247c0 23.581-14.083 42.691-31.462 42.691-7.85 0-15.03-3.904-20.542-10.364-5.439 40.734-32.059 74.761-68.435 90.636-4.77 2.081-9.704 3.853-14.783 5.285v17.451c0 8.695-3.523 16.555-9.21 22.252-5.697 5.687-13.557 9.21-22.242 9.21-17.379 0-31.462-14.083-31.462-31.462v-17.451c-35.408-9.983-63.934-36.407-76.811-70.506 10.075-3.626 19.244-9.148 27.073-16.143 17.05-15.185 27.784-37.313 27.784-61.945v-77.347l24.621 21.727c39.498 34.862 92.418 50.418 144.494 42.485 5.367-5.769 12.146-9.21 19.512-9.21 17.38 0 31.463 19.11 31.463 42.691z" fill="#ffeee6"/><path d="m302.239 391.21c-4.77 2.081-9.704 3.853-14.783 5.285v17.451c0 8.695-3.523 16.555-9.21 22.252-5.697 5.687-13.557 9.21-22.242 9.21-17.379 0-31.462-14.083-31.462-31.462v-17.451c-35.408-9.983-63.934-36.407-76.811-70.506 10.075-3.626 19.244-9.148 27.073-16.143 21.933 43.969 64.026 73.71 112.352 73.71 4.534 0 9.706 2.792 15.083 7.654z" fill="#ffdfcf"/><path d="m351.699 512h-32.492l-61.222-13.029-65.193 13.029h-32.492c0-52.849 42.846-95.694 95.705-95.694 26.424 0 50.345 10.714 67.663 28.031 17.317 17.318 28.031 41.239 28.031 67.663z" fill="#ffeee6"/><path d="m275.187 418.232c-43.659 8.87-76.523 47.482-76.523 93.768h-38.364c0-52.849 42.846-95.694 95.705-95.694 6.562 0 12.98.659 19.182 1.926z" fill="#ffdfcf"/><path d="m319.207 512h-126.415c0-20.46 16.596-37.056 37.056-37.056 10.209 0 19.45 4.131 26.157 10.817 6.696-6.686 15.937-10.817 26.146-10.817 20.47 0 37.056 16.596 37.056 37.056z" fill="#6bd9e7"/><path d="m242.519 477.169c-14.217 5.192-24.374 18.832-24.374 34.831h-25.353c0-20.46 16.596-37.056 37.056-37.056 4.461 0 8.726.783 12.671 2.225z" fill="#2ed1e2"/><g><path d="m227.922 275.24c-4.267 0-7.726-3.459-7.726-7.726v-20.331c0-4.267 3.459-7.726 7.726-7.726s7.726 3.459 7.726 7.726v20.331c.001 4.266-3.459 7.726-7.726 7.726z" fill="#685e68"/><path d="m284.081 275.24c-4.268 0-7.726-3.459-7.726-7.726v-20.331c0-4.267 3.459-7.726 7.726-7.726s7.726 3.459 7.726 7.726v20.331c0 4.266-3.459 7.726-7.726 7.726z" fill="#685e68"/><path d="m256.646 331.668c-8.548 0-17.097-2.142-24.889-6.426-3.739-2.056-5.104-6.754-3.048-10.493 2.055-3.739 6.752-5.104 10.493-3.048 10.923 6.005 23.966 6.005 34.889 0 3.741-2.055 8.438-.691 10.493 3.048s.691 8.437-3.048 10.493c-7.793 4.284-16.342 6.426-24.89 6.426z" fill="#fe646f"/></g><g><path d="m425.208 37.188-28.462 63.277c-5.135 11.415-14.415 19.667-25.257 23.781-10.842 4.115-23.261 4.098-34.676-1.036-2.527-1.137-4.897-2.474-7.103-3.997-17.739-12.17-24.774-35.633-15.642-55.936l28.462-63.277 9.933 48.387 15.881-15.065 15.526-14.728-1.464 43.261z" fill="#ffe177"/><path d="m368.344 33.322-38.634 85.891c-17.739-12.17-24.774-35.633-15.642-55.936l28.462-63.277 9.933 48.387z" fill="#ffd15b"/></g><g><path d="m382.611 276.065s2.398-16.101 15.074-22.61c0 0 9.789 13.018 2.024 25.351s-17.098-2.741-17.098-2.741z" fill="#ffdfcf"/></g><path d="m287.464 396.495v27.403c0 8.695-3.523 16.555-9.21 22.252-5.697 5.687-13.568 9.21-22.252 9.21-3.966 0-7.768-.731-11.26-2.081-11.816-4.523-20.202-15.968-20.202-29.381v-27.403c0 13.413 8.386 24.858 20.202 29.381 3.492 1.35 7.294 2.081 11.26 2.081 8.684 0 16.555-3.523 22.252-9.21 5.687-5.697 9.21-13.557 9.21-22.252z" fill="#6bd9e7"/><g><g><circle cx="409.878" cy="309.981" fill="#6bd9e7" r="20.555"/></g></g><g><g><path d="m417.025 329.256c-2.225.824-4.636 1.277-7.15 1.277-11.353 0-20.552-9.2-20.552-20.552 0-11.353 9.2-20.552 20.552-20.552 2.514 0 4.924.453 7.15 1.277-7.84 2.895-13.423 10.436-13.423 19.275s5.583 16.38 13.423 19.275z" fill="#2ed1e2"/></g></g><path d="m244.742 425.876v27.403c-11.816-4.523-20.202-15.968-20.202-29.381v-27.403c0 13.413 8.386 24.859 20.202 29.381z" fill="#2ed1e2"/></g></svg>