<?xml version="1.0"?>
<svg xmlns="http://www.w3.org/2000/svg" viewBox="0 0 128 128" width="512" height="512"><title>1</title><g id="number"><text transform="translate(58.977 -282.265)" font-size="40" fill="#24253a" font-family="MyriadPro-Regular, Myriad Pro" letter-spacing="0.002em">3<tspan x="-10.3" y="228">13</tspan><tspan x="-10.3" y="456">23</tspan><tspan x="-10.3" y="684">33</tspan><tspan x="-10.3" y="912">43</tspan><tspan x="-10.3" y="1140">53</tspan><tspan x="-10.3" y="1368">63</tspan><tspan x="-10.3" y="1596">73</tspan><tspan x="-10.3" y="1824">83</tspan><tspan x="-10.3" y="2052">93</tspan><tspan x="-20.599" y="2280">103</tspan><tspan x="-20.599" y="2508">113</tspan><tspan x="-20.599" y="2736">123</tspan><tspan x="-20.599" y="2964">133</tspan><tspan x="-20.599" y="3192">143</tspan><tspan x="-20.599" y="3420">153</tspan><tspan x="-20.599" y="3648">163</tspan><tspan x="-20.599" y="3876">173</tspan><tspan x="-20.599" y="4104">183</tspan><tspan x="-20.599" y="4332">193</tspan><tspan x="-20.599" y="4560">203</tspan><tspan x="-20.599" y="4788">213</tspan><tspan x="-20.599" y="5016">223</tspan><tspan x="-20.599" y="5244">233</tspan><tspan x="-20.599" y="5472">243</tspan></text></g><g id="icon"><polygon points="44.86 54.119 38.595 78.217 18.809 86.58 5.052 82.724 10.565 51.186 31.507 43.228 44.86 54.119" fill="#84879c"/><path d="M18.809,87.58a1,1,0,0,1-.27-.037L4.782,83.687a1,1,0,0,1-.715-1.135L9.58,51.013a1,1,0,0,1,.63-.762l20.942-7.957a1,1,0,0,1,.987.16L45.492,53.345a1,1,0,0,1,.336,1.026l-6.265,24.1a1,1,0,0,1-.579.669L19.2,87.5A.994.994,0,0,1,18.809,87.58ZM6.193,82l12.549,3.518,19.009-8.035,5.979-23L31.322,44.368l-19.871,7.55Z" fill="#2f3a5a"/><polygon points="31.507 43.228 30.919 64.774 21.252 75.986 5.052 82.724 1.435 64.872 10.565 51.186 31.507 43.228" fill="#9297ab"/><path d="M5.052,83.724a1,1,0,0,1-.98-.8L.456,65.071A1,1,0,0,1,.6,64.317L9.732,50.631a1,1,0,0,1,.477-.38l20.942-7.957a1,1,0,0,1,1.354.962L31.918,64.8a1,1,0,0,1-.242.625L22.01,76.639a.993.993,0,0,1-.374.271l-16.2,6.737A1,1,0,0,1,5.052,83.724ZM2.5,65.081,5.791,81.333l14.859-6.18,9.279-10.763.537-19.7L11.219,52.007Z" fill="#2f3a5a"/><polygon points="63.561 127 50.644 114.174 57.887 94.428 70.925 88.193 81.382 82.724 94.334 91.693 86.408 120.796 63.561 127" fill="#9297ab"/><path d="M63.561,128a1,1,0,0,1-.7-.291L49.94,114.884a1,1,0,0,1-.234-1.054l7.242-19.746a1,1,0,0,1,.507-.558l13.038-6.235,10.425-5.454a1,1,0,0,1,1.033.064L94.9,90.87a1,1,0,0,1,.4,1.085l-7.927,29.1a1,1,0,0,1-.7.7l-22.847,6.2A.986.986,0,0,1,63.561,128ZM51.8,113.917l12.052,11.967,21.737-5.9,7.59-27.869L81.309,83.89,71.388,89.08l-12.7,6.075Z" fill="#2f3a5a"/><polygon points="63.561 127 66.399 104.398 79.509 99.68 94.334 91.693 86.408 120.796 79.991 125.763 63.561 127" fill="#707583"/><path d="M63.561,128a1,1,0,0,1-.992-1.125l2.838-22.6a1,1,0,0,1,.653-.816L79.1,98.764l14.76-7.952A1,1,0,0,1,95.3,91.955l-7.927,29.1a1,1,0,0,1-.353.528L80.6,126.554a1,1,0,0,1-.537.207L63.636,128Zm3.754-22.868-2.61,20.779,14.911-1.123,5.915-4.579,7.227-26.532L79.983,100.56a.986.986,0,0,1-.135.061Z" fill="#2f3a5a"/><polygon points="95.457 24.542 104.898 36.728 96.653 52.517 75.639 59.772 64.418 53.636 75.59 27.248 95.457 24.542" fill="#707583"/><path d="M75.639,60.772a1,1,0,0,1-.48-.123L63.938,54.514a1,1,0,0,1-.441-1.267L74.669,26.858a1,1,0,0,1,.786-.6l19.866-2.706a1,1,0,0,1,.925.378l9.442,12.187a1,1,0,0,1,.1,1.075L97.539,52.98a1,1,0,0,1-.56.482L75.965,60.717A1,1,0,0,1,75.639,60.772Zm-9.948-7.579,10.04,5.49,20.22-6.98,7.765-14.868-8.7-11.223-18.73,2.551Z" fill="#2f3a5a"/><polygon points="95.457 24.542 90.596 43.211 64.418 53.636 75.59 27.248 95.457 24.542" fill="#9297ab"/><path d="M64.418,54.636a1,1,0,0,1-.921-1.39L74.669,26.858a1,1,0,0,1,.786-.6l19.866-2.706a1,1,0,0,1,1.1,1.243l-4.86,18.669a1,1,0,0,1-.6.677L64.788,54.565A1,1,0,0,1,64.418,54.636ZM76.289,28.162,66.272,51.821,89.756,42.47l4.357-16.735Z" fill="#2f3a5a"/><line x1="10.565" y1="51.186" x2="43.407" y2="18.344" fill="#ffd684"/><path d="M10.564,52.186a1,1,0,0,1-.707-1.707L42.7,17.637a1,1,0,0,1,1.414,1.414L11.271,51.893A1,1,0,0,1,10.564,52.186Z" fill="#2f3a5a"/><line x1="38.727" y1="77.79" x2="54.512" y2="62.005" fill="#ffd684"/><path d="M38.727,78.79a1,1,0,0,1-.707-1.707L53.8,61.3a1,1,0,0,1,1.414,1.414L39.434,78.5A1,1,0,0,1,38.727,78.79Z" fill="#2f3a5a"/><line x1="44.86" y1="54.874" x2="60.645" y2="39.089" fill="#ffd684"/><path d="M44.86,55.874a1,1,0,0,1-.707-1.707L59.938,38.382A1,1,0,0,1,61.352,39.8L45.567,55.581A1,1,0,0,1,44.86,55.874Z" fill="#2f3a5a"/><line x1="50.059" y1="32.148" x2="60.645" y2="21.562" fill="#ffd684"/><path d="M50.059,33.147a1,1,0,0,1-.707-1.707L59.938,20.854a1,1,0,0,1,1.414,1.414L50.766,32.854A1,1,0,0,1,50.059,33.147Z" fill="#2f3a5a"/><line x1="44.86" y1="37.347" x2="47.204" y2="35.003" fill="#ffd684"/><path d="M44.86,38.347a1,1,0,0,1-.707-1.707L46.5,34.3a1,1,0,0,1,1.414,1.414l-2.344,2.344A1,1,0,0,1,44.86,38.347Z" fill="#2f3a5a"/><line x1="76.023" y1="26.794" x2="91.808" y2="11.009" fill="#ffd684"/><path d="M76.023,27.794a1,1,0,0,1-.707-1.707L91.1,10.3a1,1,0,0,1,1.414,1.414L76.73,27.5A1,1,0,0,1,76.023,27.794Z" fill="#2f3a5a"/><line x1="104.231" y1="37.347" x2="120.017" y2="21.562" fill="#ffd684"/><path d="M104.231,38.347a1,1,0,0,1-.707-1.707L119.31,20.854a1,1,0,0,1,1.414,1.414L104.938,38.054A1,1,0,0,1,104.231,38.347Z" fill="#2f3a5a"/><line x1="97.835" y1="16.785" x2="113.62" y2="1" fill="#ffd684"/><path d="M97.835,17.785a1,1,0,0,1-.707-1.707L112.913.293a1,1,0,0,1,1.414,1.414L98.542,17.492A1,1,0,0,1,97.835,17.785Z" fill="#2f3a5a"/><line x1="118.672" y1="11.009" x2="126.565" y2="3.116" fill="#ffd684"/><path d="M118.672,12.009a1,1,0,0,1-.707-1.707l7.893-7.893a1,1,0,0,1,1.414,1.414l-7.893,7.893A1,1,0,0,1,118.672,12.009Z" fill="#2f3a5a"/><line x1="110.779" y1="18.901" x2="114.727" y2="14.954" fill="#ffd684"/><path d="M110.779,19.9a1,1,0,0,1-.707-1.707l3.948-3.948a1,1,0,0,1,1.414,1.414l-3.948,3.948A1,1,0,0,1,110.779,19.9Z" fill="#2f3a5a"/><line x1="81.382" y1="82.724" x2="100.076" y2="64.03" fill="#ffd684"/><path d="M81.381,83.724a1,1,0,0,1-.707-1.707L99.369,63.322a1,1,0,0,1,1.414,1.414L82.088,83.431A1,1,0,0,1,81.381,83.724Z" fill="#2f3a5a"/><line x1="114.816" y1="92.426" x2="123.434" y2="83.807" fill="#ffd684"/><path d="M114.815,93.426a1,1,0,0,1-.707-1.707l8.619-8.619a1,1,0,0,1,1.414,1.414l-8.619,8.619A1,1,0,0,1,114.815,93.426Z" fill="#2f3a5a"/><line x1="86.789" y1="120.452" x2="110.212" y2="97.029" fill="#ffd684"/><path d="M86.789,121.452a1,1,0,0,1-.707-1.707l23.423-23.423a1,1,0,0,1,1.414,1.414L87.5,121.159A1,1,0,0,1,86.789,121.452Z" fill="#2f3a5a"/><line x1="97.428" y1="79.116" x2="115.15" y2="61.393" fill="#ffd684"/><path d="M97.428,80.116a1,1,0,0,1-.707-1.707l17.723-17.723a1,1,0,0,1,1.414,1.414L98.135,79.823A1,1,0,0,1,97.428,80.116Z" fill="#2f3a5a"/><line x1="99.235" y1="90.889" x2="104.677" y2="85.447" fill="#ffd684"/><path d="M99.235,91.889a1,1,0,0,1-.707-1.707l5.442-5.442a1,1,0,0,1,1.414,1.414L99.942,91.6A1,1,0,0,1,99.235,91.889Z" fill="#2f3a5a"/><polygon points="113.474 42.186 120.027 38.65 124.664 43.124 123.517 53.596 114.542 55.382 110.245 49.718 113.474 42.186" fill="#84879c"/><path d="M114.542,56.382a1,1,0,0,1-.8-.4l-4.3-5.664a1,1,0,0,1-.122-1l3.229-7.532a1,1,0,0,1,.444-.486l6.552-3.536a1,1,0,0,1,1.169.16l4.637,4.473a1,1,0,0,1,.3.829l-1.146,10.473a1,1,0,0,1-.8.872l-8.975,1.786A1.026,1.026,0,0,1,114.542,56.382Zm-3.148-6.8,3.567,4.7,7.643-1.521,1.013-9.256-3.758-3.625-5.6,3.023Z" fill="#2f3a5a"/><polygon points="57.741 69.173 64.293 65.637 68.93 70.11 67.784 80.583 58.809 82.369 56.616 76.444 57.741 69.173" fill="#84879c"/><path d="M58.808,83.369a1,1,0,0,1-.937-.653l-2.193-5.925a1,1,0,0,1-.05-.5l1.125-7.271a1,1,0,0,1,.513-.727l6.552-3.536a1,1,0,0,1,1.169.16l4.637,4.473a1,1,0,0,1,.3.829L68.778,80.692a1,1,0,0,1-.8.872L59,83.35A1.031,1.031,0,0,1,58.808,83.369ZM57.644,76.34l1.807,4.881,7.419-1.477,1.013-9.256-3.758-3.625-5.472,2.953Z" fill="#2f3a5a"/><line x1="46.317" y1="15.512" x2="51.397" y2="10.433" fill="#ffd684"/><path d="M46.317,16.512a1,1,0,0,1-.707-1.707l5.08-5.08A1,1,0,0,1,52.1,11.14l-5.08,5.08A1,1,0,0,1,46.317,16.512Z" fill="#2f3a5a"/></g></svg>
