<svg id="Capa_1" enable-background="new 0 0 511.989 511.989" height="512" viewBox="0 0 511.989 511.989" width="512" xmlns="http://www.w3.org/2000/svg"><g><g><path d="m223.011 192.545-35.135 35.135c-.458.458-.927.877-1.425 1.256 0 0-.03.02-.09.07-.169.14-.359.279-.538.399-.06.04-.12.08-.179.13-6.059 4.155-14.409 3.537-19.8-1.853l-11.918-11.918c-19.222-19.222-46.256-25.878-70.888-19.959-.06.01-.11.03-.169.04-12.984 3.149-25.28 9.785-35.414 19.919l-17.906 17.906c-29.406 29.406-29.406 77.076 0 106.482l17.906 17.906c29.396 29.396 77.076 29.396 106.472 0l99.606-99.606zm-74.346 120.164-20.099 20.109c-15.395 15.395-40.357 15.395-55.752 0l-18.036-18.036c-15.385-15.395-15.385-40.347 0-55.742l18.036-18.036c15.395-15.395 40.357-15.395 55.752 0l20.099 20.099c14.259 14.258 14.259 37.356 0 51.606z" fill="#0ed2b3"/><g fill="#0ab69f"><path d="m185.644 229.534c-3.149 2.322-14.778 10.712-20.896 12.535-16.342 4.873-28.469-8.3-34.557-14.389l-11.918-11.918c-10.134-10.134-22.43-16.77-35.404-19.919.06-.01.11-.03.169-.04 24.633-5.919 51.667.737 70.888 19.959l11.918 11.918c5.391 5.391 13.741 6.009 19.8 1.854z"/><path d="m223.011 192.547-24.368 24.368 19.237 41.534-99.604 99.604c-10.133 10.133-22.436 16.772-35.413 19.921 24.679 5.989 51.796-.65 71.067-19.921l99.604-99.604z"/></g><path d="m253.535 258.449-30.523-65.902 100.52-100.52c16.057-16.057 35.308-28.564 56.505-36.71l124.457-47.827z" fill="#f2edeb"/><path d="m446.586 29.743-204.338 204.338 11.287 24.368 250.959-250.959z" fill="#e8dcd9"/><path d="m284.303 324.106 35.134-35.134-65.902-30.523-99.604 99.604c-29.404 29.404-29.404 77.076 0 106.48l17.904 17.904c29.404 29.404 77.076 29.404 106.48 0l17.904-17.904c29.404-29.404 29.404-77.076 0-106.48l-11.915-11.915c-6.085-6.084-6.085-15.948-.001-22.032zm-13.32 115.061-18.034 18.034c-15.395 15.395-40.354 15.395-55.748 0l-18.034-18.034c-15.395-15.395-15.395-40.354 0-55.749l20.105-20.105c14.251-14.251 37.356-14.251 51.607 0l20.104 20.104c15.394 15.396 15.394 40.356 0 55.75z" fill="#0ed2b3"/><g><path d="m284.303 346.138c-6.084-6.084-6.084-15.948 0-22.032l35.134-35.134-65.902-30.523-11.286 11.286 41.534 19.237-35.134 35.134c-6.084 6.084-6.084 15.948 0 22.032l11.915 11.915c29.404 29.404 29.404 77.076 0 106.48l-17.904 17.904c-10.133 10.133-22.436 16.772-35.413 19.921 24.679 5.989 51.796-.65 71.067-19.921l17.904-17.904c29.404-29.404 29.404-77.076 0-106.48z" fill="#0ab69f"/></g><path d="m253.535 258.449 65.902 30.523 100.52-100.52c16.057-16.057 28.564-35.308 36.71-56.505l47.827-124.457z" fill="#f2edeb"/><path d="m446.586 65.398-25.574 66.549c-8.146 21.197-20.652 40.448-36.71 56.505l-89.234 89.234 24.368 11.286 100.52-100.52c16.057-16.057 28.564-35.308 36.71-56.505l47.828-124.457z" fill="#e8dcd9"/><circle cx="303.957" cy="208.027" fill="#f2edeb" r="20.967"/><path d="m318.783 193.201c-6.79-6.79-17.071-7.931-25.056-3.459 1.644.921 3.198 2.061 4.596 3.459 8.188 8.188 8.188 21.464 0 29.652-1.398 1.398-2.952 2.538-4.596 3.459 7.985 4.472 18.266 3.331 25.056-3.459 8.188-8.188 8.188-21.464 0-29.652z" fill="#e8dcd9"/></g><g><path d="m133.869 235.698c-18.294-18.295-48.061-18.295-66.355 0l-18.034 18.034c-18.294 18.294-18.294 48.061 0 66.355l18.034 18.034c9.147 9.147 21.162 13.721 33.177 13.721 12.016 0 24.031-4.574 33.178-13.721l3.113-3.114c2.929-2.929 2.928-7.678-.001-10.606-2.929-2.929-7.678-2.929-10.606.001l-3.113 3.113c-12.446 12.446-32.696 12.445-45.142 0l-18.034-18.034c-12.446-12.446-12.446-32.696 0-45.142l18.034-18.034c12.446-12.445 32.695-12.446 45.142 0l20.104 20.104c9.032 9.032 11.112 22.688 5.177 33.982-1.927 3.667-.517 8.201 3.15 10.128 3.666 1.926 8.201.516 10.128-3.15 9.008-17.141 5.854-37.864-7.849-51.566z"/><path d="m511.725 9.462c1.182-3.91-2.187-11.454-9.923-8.971l-124.46 47.821c-22.323 8.584-42.21 21.506-59.111 38.407l-135.657 135.658c-1.526 1.526-3.555 2.367-5.712 2.367s-4.187-.84-5.713-2.367l-11.915-11.915c-32.28-32.281-84.805-32.281-117.086 0l-17.904 17.904c-32.281 32.281-32.281 84.806 0 117.086l17.904 17.904c16.141 16.14 37.342 24.21 58.543 24.21 9.793 0 19.579-1.744 28.873-5.188-3.396 9.13-5.186 18.882-5.186 28.914 0 22.115 8.612 42.906 24.25 58.543l17.904 17.904c15.637 15.638 36.428 24.25 58.543 24.25 22.114 0 42.905-8.612 58.543-24.25l17.904-17.904c32.281-32.281 32.281-84.805 0-117.086l-11.915-11.916c-1.526-1.526-2.367-3.555-2.367-5.712s.84-4.187 2.367-5.712l35.133-35.134c3.19-3.013 3.1-9.7-2.149-12.108l-8.425-3.901-47.733-22.108 23.412-23.412c4.357 2.486 9.233 3.736 14.112 3.736 7.29 0 14.579-2.775 20.129-8.325 5.377-5.377 8.338-12.526 8.338-20.129 0-5.034-1.305-9.865-3.743-14.118l156.145-156.145-35.154 91.494c-7.827 20.351-19.607 38.481-35.013 53.888l-75.813 75.813c-2.929 2.929-2.929 7.678 0 10.606 1.464 1.464 3.384 2.197 5.303 2.197s3.839-.732 5.303-2.197l75.813-75.813c16.9-16.9 29.822-36.788 38.408-59.113l47.82-124.459c.081-.222.006.013.232-.719zm-182.888 87.863c15.407-15.406 33.537-27.187 53.886-35.012l91.496-35.155-156.144 156.144c-4.253-2.437-9.084-3.743-14.118-3.743-7.604 0-14.753 2.961-20.129 8.338-5.377 5.376-8.338 12.525-8.338 20.129 0 5.034 1.305 9.865 3.743 14.118l-23.406 23.406-23.809-51.406zm-276.083 255.425-17.904-17.904c-26.432-26.433-26.432-69.441 0-95.874l17.904-17.904c13.216-13.216 30.577-19.824 47.937-19.824s34.721 6.608 47.937 19.824l11.915 11.915c4.359 4.359 10.155 6.76 16.32 6.76s11.96-2.401 16.319-6.76l27.539-27.538 23.806 51.406-95.899 95.899c-26.433 26.431-69.441 26.432-95.874 0zm226.246-33.947c-4.359 4.359-6.76 10.154-6.76 16.319s2.401 11.96 6.76 16.319l11.915 11.915c26.432 26.432 26.432 69.441 0 95.873l-17.904 17.904c-12.805 12.804-29.829 19.856-47.937 19.856s-35.132-7.052-47.937-19.856l-17.904-17.904c-26.432-26.432-26.432-69.441 0-95.873l95.899-95.899 51.406 23.806zm34.48-101.253c-5.251 5.252-13.794 5.251-19.045 0-2.543-2.544-3.944-5.926-3.944-9.523s1.4-6.979 3.944-9.523 5.926-3.944 9.523-3.944c3.587 0 6.96 1.394 9.502 3.926.007.007.012.014.019.021s.014.012.021.019c2.531 2.542 3.926 5.914 3.926 9.502-.001 3.596-1.403 6.978-3.946 9.522z"/><path d="m225.075 345.127c-11.75 0-22.798 4.576-31.107 12.885l-20.104 20.104c-18.294 18.294-18.294 48.061 0 66.355l18.034 18.034c9.147 9.147 21.162 13.721 33.178 13.721 12.015 0 24.03-4.574 33.177-13.721l18.034-18.034c18.294-18.294 18.294-48.061 0-66.355l-20.104-20.104c-8.311-8.31-19.358-12.885-31.108-12.885zm49.953 66.166c0 8.526-3.32 16.542-9.349 22.571l-18.034 18.034c-12.446 12.445-32.695 12.445-45.142 0l-18.034-18.034c-12.446-12.446-12.446-32.696 0-45.142l20.104-20.104c5.476-5.476 12.756-8.491 20.5-8.491s15.024 3.016 20.5 8.491l20.104 20.104c6.031 6.029 9.351 14.045 9.351 22.571z"/></g></g></svg>