<svg id="Capa_1" enable-background="new 0 0 512 512" height="512" viewBox="0 0 512 512" width="512" xmlns="http://www.w3.org/2000/svg"><g><path d="m281.994.004h-51.989c-90.933 0-164.649 73.716-164.649 164.649v32.272c0 90.933 73.716 164.649 164.649 164.649h51.989c90.933 0 164.649-73.716 164.649-164.649v-32.272c0-90.933-73.716-164.649-164.649-164.649z" fill="#e8edf2"/><path d="m290.944 361.333c-2.967.154-5.954.237-8.952.237h-51.982c-90.933 0-164.653-73.719-164.653-164.653v-32.265c0-90.933 73.719-164.652 164.653-164.652h51.982c2.998 0 5.985.082 8.952.237-86.771 4.646-155.7 76.48-155.7 164.416v32.265c0 87.935 68.929 159.769 155.7 164.415z" fill="#dedbee"/><path d="m320.195 86.86c-7.492-7.492-19.639-7.492-27.131 0l-17.878 17.878v-55.085c0-10.595-8.589-19.184-19.184-19.184s-19.184 8.589-19.184 19.184v55.084l-17.877-17.877c-7.492-7.492-19.639-7.492-27.131 0-7.492 7.492-7.492 19.639 0 27.13l41.423 41.423 22.77-22.77 22.77 22.77 41.423-41.423c7.491-7.492 7.491-19.639-.001-27.13z" fill="#6bd9e7"/><path d="m351.694 512h-191.388c0-52.848 42.845-95.694 95.704-95.694 26.414 0 50.335 10.714 67.652 28.031 17.318 17.318 28.032 41.239 28.032 67.663z" fill="#e8edf2"/><path d="m277.253 418.676c-42.639 9.653-74.461 47.78-74.461 93.324h-42.485c0-52.848 42.845-95.694 95.704-95.694 7.303 0 14.411.814 21.242 2.37z" fill="#dedbee"/><path d="m263.726 463.942v48.058h-15.453v-48.058c0-4.265 3.461-7.726 7.726-7.726 4.266 0 7.727 3.461 7.727 7.726z" fill="#dedbee"/><path d="m344.091 433.511-88.091 49.335-88.091-49.335 31.823-39.539h112.536z" fill="#e8edf2"/><path d="m256 393.972v88.874l-88.091-49.335 31.823-39.539z" fill="#dedbee"/><path d="m224.539 394.972c-48.614-13.701-84.248-58.37-84.248-111.372 0 0 22.096-60.475 26.433-61.723 10.123-2.913 20.353-5.32 30.659-7.217 49.012-9.046 99.614-6.65 147.788 7.183 8.935 2.566 15.746 26.7 15.746 27.02l10.793 34.736c0 49.644-31.255 91.974-75.172 108.395-2.967 1.113-5.996 2.112-9.076 2.977" fill="#ffdfcf"/><path d="m287.462 394.972v18.976c0 8.695-3.523 16.555-9.21 22.252-5.697 5.687-13.567 9.21-22.252 9.21-17.379 0-31.461-14.083-31.461-31.461v-18.976" fill="#ffcebf"/><path d="m163.14 307.624-9.364-81.724c14.319-4.78 28.886-8.53 43.607-11.239-2.792 22.684-3.832 60.729 13.691 90.387 26.713 45.225-47.934 2.576-47.934 2.576z" fill="#ffcebf"/><path d="m312.175 393.973-56.227 18.646-56.217-18.646c-42.083-13.948-68.939-55.114-64.746-99.247l6.099-64.293c5.985-2.287 12.022-4.378 18.1-6.284 2.511-.784 5.022-1.534 7.541-2.266l10.291 65.807s72.638 40.97 78.932 32.677c6.305 8.293 78.932-32.677 78.932-32.677l10.291-65.849c8.633 2.472 17.194 5.326 25.651 8.55l6.099 64.334c4.183 44.134-22.673 85.3-64.746 99.248z" fill="#7a6d79"/><g fill="#685e68"><path d="m255.949 412.619-56.217-18.646c-42.083-13.948-68.939-55.114-64.746-99.247l6.099-64.293c5.985-2.287 12.022-4.378 18.1-6.284 1.504-.474 3.008-.927 4.512-1.37-8.87 43.896-16.411 146.542 92.252 189.84z"/><g><path d="m227.922 275.243c-4.267 0-7.726-3.459-7.726-7.726v-20.331c0-4.267 3.459-7.726 7.726-7.726s7.726 3.459 7.726 7.726v20.331c0 4.267-3.459 7.726-7.726 7.726z"/><path d="m284.078 275.243c-4.267 0-7.726-3.459-7.726-7.726v-20.331c0-4.267 3.459-7.726 7.726-7.726s7.726 3.459 7.726 7.726v20.331c.001 4.267-3.458 7.726-7.726 7.726z"/></g><path d="m283.707 287.689c-8.419-2.502-15.201-1.234-20.346 1.251-2.983 1.441-5.474 3.373-7.413 5.619-1.94-2.246-4.431-4.179-7.413-5.619-5.145-2.485-11.927-3.754-20.347-1.251-21.649 6.435-34.934 13.272-51.171 0 0 0 1.345 39.57 47.943 44.661 12.831 1.402 24.692-3.691 30.988-11.981 6.296 8.29 18.157 13.382 30.988 11.981 46.598-5.091 47.943-44.661 47.943-44.661-16.237 13.272-29.522 6.435-51.172 0z"/></g><circle cx="256.003" cy="167.246" fill="#ffe177" r="42.049"/><path d="m264.227 208.484c-2.658.525-5.408.803-8.231.803-23.22 0-42.042-18.821-42.042-42.042 0-23.231 18.821-42.052 42.042-42.052 2.823 0 5.573.278 8.231.804-19.285 3.812-33.831 20.83-33.831 41.248-.001 20.408 14.546 37.427 33.831 41.239z" fill="#ffd15b"/><circle cx="256.003" cy="167.246" fill="#fe646f" r="16.918"/></g></svg>