<svg id="Capa_1" enable-background="new 0 0 512 512" height="512" viewBox="0 0 512 512" width="512" xmlns="http://www.w3.org/2000/svg"><g><path d="m254.438 246.264h134.618c18.964 0 34.337-15.373 34.337-34.338v-2.873c0-18.964-15.373-34.338-34.337-34.338l-133.056-17.981" fill="#7a6d79"/><path d="m256 156.734-133.055 17.982c-18.964 0-34.338 15.373-34.338 34.338v2.873c0 18.964 15.373 34.338 34.338 34.338h131.493" fill="#685e68"/><path d="m351.698 512h-191.396c0-52.848 42.845-95.693 95.704-95.693 26.424 0 50.345 10.714 67.662 28.031s28.03 41.238 28.03 67.662z" fill="#fe646f"/><path d="m278.618 419.006c-41.949 10.137-73.102 47.934-73.102 92.994h-45.215c0-52.848 42.845-95.694 95.704-95.694 7.788 0 15.36.928 22.613 2.7z" fill="#fd4755"/><path d="m422.673 268.249c0 23.581-14.083 42.691-31.462 42.691-7.85 0-15.02-3.904-20.531-10.364-6.15 46.07-39.415 83.568-83.218 95.92v17.451c0 8.695-3.523 16.555-9.21 22.252-5.697 5.687-13.568 9.21-22.252 9.21-17.379 0-31.462-14.083-31.462-31.462v-17.451c-20.562-5.8-38.807-17.142-53.023-32.306-16.04-17.142-26.929-39.178-30.195-63.614-5.511 6.459-12.682 10.364-20.531 10.364-17.379 0-31.462-19.11-31.462-42.691s14.083-42.691 31.462-42.691c7.366 0 14.144 3.451 19.501 9.21l5.635-3.091c0-31.946 3.282-43.028 22.821-63.965 2.039-2.185 27.795-18.944 83.121-18.944 63.902 0 115.666 21.458 115.666 85.36l4.175.639c5.357-5.759 12.136-9.21 19.501-9.21 17.381.002 31.464 19.112 31.464 42.692z" fill="#ffeee6"/><path d="m171.515 364.19c-16.04-17.142-26.929-39.178-30.195-63.614-5.511 6.459-12.682 10.364-20.531 10.364-17.379 0-31.462-19.11-31.462-42.691s14.083-42.691 31.462-42.691c7.366 0 14.144 3.451 19.501 9.21l5.635-3.091c0-31.946 11.538-60.873 31.07-81.817 2.04-2.184 4.162-4.286 6.377-6.294l24.137 13.289s-36.582 146.996 46.585 192.52c37.427 20.491-14.33 20.738-82.579 14.815z" fill="#ffdfcf"/><path d="m371.71 231.678v128.783c0 19.027-15.422 34.449-34.449 34.449h-1.587v20.027c0 19.017-15.422 34.449-34.449 34.449h-10.776v4.152c0 5.666-1.37 11.002-3.791 15.721-5.707 11.126-17.297 18.729-30.658 18.729-9.509 0-18.121-3.853-24.353-10.085-6.233-6.243-10.096-14.855-10.096-24.364v-4.152h-10.765c-19.028 0-34.449-15.432-34.449-34.449v-20.028h-1.586c-19.028 0-34.449-15.422-34.449-34.449l5.625-128.783c0-31.946 7.324-60.873 28.258-81.817.371-.371.742-.742 1.123-1.092v126.619c0 8.911 4.059 16.493 10.168 21.49 4.904 4.018 11.126 6.356 17.647 6.356 3.915 0 7.943-.845 11.847-2.689 13.001-6.119 27.011-9.189 41.042-9.189 14.011 0 28.041 3.07 41.032 9.189 18.44 8.695 39.662-4.77 39.662-25.157v-126.608c21.591 21.005 35.004 50.386 35.004 82.898z" fill="#7a6d79"/><path d="m286.658 469.258c-5.707 11.126-17.297 18.729-30.658 18.729-9.509 0-18.121-3.853-24.353-10.085-6.233-6.243-10.096-14.855-10.096-24.364v-4.152h-10.765c-19.028 0-34.449-15.432-34.449-34.449v-20.027h-1.586c-19.028 0-34.449-15.422-34.449-34.449v-128.783c0-31.946 12.949-60.873 33.883-81.817.371-.371.742-.742 1.123-1.092v126.619c0 8.911 4.059 16.493 10.168 21.49 3.346 56.711 21.343 149.057 101.182 172.38z" fill="#685e68"/><g><path d="m227.922 275.242c-4.268 0-7.726-3.459-7.726-7.726v-20.331c0-4.267 3.459-7.726 7.726-7.726s7.726 3.459 7.726 7.726v20.331c0 4.267-3.459 7.726-7.726 7.726z" fill="#685e68"/><path d="m284.078 275.242c-4.268 0-7.726-3.459-7.726-7.726v-20.331c0-4.267 3.459-7.726 7.726-7.726s7.726 3.459 7.726 7.726v20.331c.001 4.267-3.458 7.726-7.726 7.726z" fill="#685e68"/><path d="m256.645 331.671c-8.548 0-17.097-2.142-24.889-6.426-3.739-2.056-5.104-6.754-3.048-10.493s6.753-5.104 10.493-3.048c10.924 6.005 23.966 6.005 34.889 0 3.742-2.056 8.438-.691 10.493 3.048s.691 8.437-3.048 10.493c-7.794 4.283-16.342 6.426-24.89 6.426z" fill="#fff"/></g><g><path d="m382.609 276.068s2.398-16.101 15.073-22.61c0 0 9.789 13.018 2.024 25.351-7.765 12.332-17.097-2.741-17.097-2.741z" fill="#ffdfcf"/><path d="m129.391 276.068s-2.398-16.101-15.073-22.61c0 0-9.789 13.018-2.024 25.351s17.097-2.741 17.097-2.741z" fill="#ffcebf"/></g><path d="m375.408 39.952v112.433h-238.816v-112.433l48.985 25.198 15.71 8.076 54.713-40.733 54.713 40.733z" fill="#ffe177"/><path d="m136.592 116.432h238.816v35.953h-238.816z" fill="#ffd15b"/><path d="m185.577 65.15v87.235h-48.985v-112.433z" fill="#ffd15b"/><path d="m385.687 138.752h-259.374c-9.931 0-17.982 8.051-17.982 17.982 0 9.931 8.051 17.982 17.982 17.982h259.374c9.931 0 17.982-8.051 17.982-17.982 0-9.932-8.051-17.982-17.982-17.982z" fill="#ffe177"/><path d="m183.83 169.446c3.256 3.255 7.747 5.275 12.712 5.275h-70.234c-4.966 0-9.457-2.019-12.712-5.275-3.255-3.255-5.264-7.747-5.264-12.712 0-9.931 8.046-17.977 17.977-17.977h70.234c-9.931 0-17.987 8.046-17.987 17.977-.001 4.965 2.018 9.457 5.274 12.712z" fill="#ffd15b"/><circle cx="256" cy="26.218" fill="#fff0ad" r="26.217"/><path d="m266.107 50.417c-3.111 1.298-6.521 2.019-10.106 2.019-14.474 0-26.218-11.744-26.218-26.218s11.744-26.218 26.218-26.218c3.585 0 6.995.721 10.106 2.019-9.457 3.956-16.112 13.3-16.112 24.199s6.655 20.243 16.112 24.199z" fill="#ffe177"/><g><circle cx="133.855" cy="31.369" fill="#fff0ad" r="26.217"/><path d="m143.962 55.568c-3.111 1.298-6.521 2.019-10.106 2.019-14.474 0-26.218-11.744-26.218-26.218s11.744-26.218 26.218-26.218c3.585 0 6.995.721 10.106 2.019-9.457 3.956-16.112 13.3-16.112 24.199s6.655 20.243 16.112 24.199z" fill="#ffe177"/><circle cx="378.145" cy="31.369" fill="#fff0ad" r="26.217"/><path d="m388.252 55.568c-3.111 1.298-6.521 2.019-10.106 2.019-14.474 0-26.218-11.744-26.218-26.218s11.744-26.218 26.218-26.218c3.585 0 6.995.721 10.106 2.019-9.457 3.956-16.112 13.3-16.112 24.199s6.655 20.243 16.112 24.199z" fill="#ffe177"/></g><g fill="#fe646f"><path d="m256 115.737c-6.811 0-12.333-5.522-12.333-12.333v-15.25c0-6.811 5.522-12.333 12.333-12.333 6.811 0 12.333 5.522 12.333 12.333v15.251c0 6.811-5.522 12.332-12.333 12.332z"/><g><path d="m168.747 118.127c-6.811 0-12.333-5.522-12.333-12.333v-7.866c0-6.811 5.522-12.333 12.333-12.333 6.811 0 12.333 5.522 12.333 12.333v7.866c0 6.811-5.522 12.333-12.333 12.333z"/><path d="m343.253 118.127c-6.811 0-12.333-5.522-12.333-12.333v-7.866c0-6.811 5.522-12.333 12.333-12.333 6.811 0 12.333 5.522 12.333 12.333v7.866c0 6.811-5.522 12.333-12.333 12.333z"/></g></g></g></svg>